External Loads File
version=1
nRows=31
nColumns=13
Range=5.000000e-03-10 seconds
endheader
time 	forceRightX 	forceRightY 	forceRightZ 	pointRightX 	pointRightY 	pointRightZ 	forceLeftX 	forceLeftY 	forceLeftZ 	pointLeftX 	pointLeftY 	pointLeftZ 		
7.505000 -25.610999 40.837619 -0.000000 0.402401 0.437944 -0.169990 204.886317 272.420967 -0.000000 0.165324 0.166167 -0.413085
7.510000 -25.277849 58.982838 -0.000000 0.408408 0.431503 -0.169880 175.378560 207.168648 -0.000000 0.159750 0.173137 -0.413135
7.515000 -24.444527 83.372856 -0.000000 0.413812 0.424564 -0.169581 145.381822 145.651828 -0.000000 0.154173 0.180331 -0.412734
7.520000 -23.152213 114.169368 -0.000000 0.418643 0.417100 -0.169066 115.976858 89.446840 -0.000000 0.149550 0.188012 -0.412628
7.525000 -21.463402 151.027382 -0.000000 0.422817 0.409216 -0.168698 88.427782 39.432670 -0.000000 0.145453 0.196008 -0.412665
7.530000 -19.482889 193.056914 -0.000000 0.426479 0.401243 -0.168516 63.612990 -3.932813 -0.000000 0.141681 0.204498 -0.412578
7.535000 -17.368632 238.945990 -0.000000 0.429481 0.392733 -0.168483 41.934544 -40.521487 -0.000000 0.138426 0.213326 -0.412379
7.540000 -15.565437 287.143203 -0.000000 0.432161 0.384047 -0.168464 23.495159 -70.379633 -0.000000 0.135765 0.222370 -0.412158
7.545000 -13.861603 336.098809 -0.000000 0.434213 0.374593 -0.168479 8.060737 -93.726137 -0.000000 0.133676 0.231825 -0.412298
7.550000 -12.887323 384.309946 -0.000000 0.435990 0.364742 -0.168706 -4.421053 -110.831255 -0.000000 0.131966 0.241181 -0.412127
7.555000 -12.270942 430.475607 -0.000000 0.437333 0.354514 -0.168910 -14.141795 -122.173910 -0.000000 0.130820 0.250965 -0.412047
7.560000 -12.102187 473.502463 -0.000000 0.438221 0.343965 -0.168786 -21.010527 -128.379087 -0.000000 0.130087 0.260867 -0.412020
7.565000 -12.068815 512.623636 -0.000000 0.438824 0.333162 -0.168576 -24.997389 -130.192519 -0.000000 0.129813 0.270851 -0.411913
7.570000 -11.662068 547.397189 -0.000000 0.438722 0.322316 -0.168781 -26.173190 -128.423666 -0.000000 0.130069 0.281164 -0.411807
7.575000 -11.019743 577.640230 -0.000000 0.438136 0.311435 -0.168547 -24.569746 -123.905859 -0.000000 0.130781 0.291332 -0.411729
7.580000 -8.815847 603.450248 -0.000000 0.436751 0.300512 -0.168815 -20.700897 -117.341413 -0.000000 0.132017 0.301773 -0.411685
7.585000 -6.057272 625.118863 -0.000000 0.435064 0.289639 -0.168815 -14.758922 -109.423052 -0.000000 0.133812 0.311875 -0.411614
7.590000 -1.164790 643.179578 -0.000000 0.432754 0.278528 -0.168446 -7.526068 -100.637589 -0.000000 0.136139 0.322017 -0.411624
7.595000 4.331999 658.321351 -0.000000 0.429965 0.267872 -0.168635 0.759863 -91.439470 -0.000000 0.139006 0.332127 -0.411605
7.600000 10.942332 671.376144 -0.000000 0.426643 0.257450 -0.168599 9.561905 -82.162188 -0.000000 0.142486 0.342167 -0.411636
7.605000 19.182102 683.191497 -0.000000 0.422716 0.247219 -0.168532 18.469570 -73.093144 -0.000000 0.146599 0.352228 -0.411631
7.610000 28.412436 694.596849 -0.000000 0.418279 0.237059 -0.168475 27.293499 -64.438414 -0.000000 0.151082 0.361957 -0.411775
7.615000 38.816333 706.302275 -0.000000 0.413267 0.227241 -0.168328 35.762112 -56.370809 -0.000000 0.156233 0.371432 -0.411861
7.620000 50.486687 718.843657 -0.000000 0.407664 0.217771 -0.168224 43.608040 -49.020432 -0.000000 0.161864 0.380622 -0.412014
7.625000 64.127019 732.511816 -0.000000 0.401485 0.208630 -0.167994 50.545009 -42.527939 -0.000000 0.168032 0.389664 -0.412068
7.630000 79.504395 747.477897 -0.000000 0.394747 0.199877 -0.167782 56.372694 -36.961610 -0.000000 0.174604 0.398471 -0.412045
7.635000 96.959016 763.679773 -0.000000 0.387367 0.191495 -0.167060 60.857143 -32.399898 -0.000000 0.181699 0.406855 -0.411957
7.640000 115.677051 780.983112 -0.000000 0.379667 0.183567 -0.166929 63.832707 -28.797628 -0.000000 0.189190 0.414778 -0.411929
7.645000 136.139286 798.874939 -0.000000 0.371507 0.176157 -0.166728 65.112047 -26.147596 -0.000000 0.197128 0.422252 -0.411870
7.650000 158.100270 816.753049 -0.000000 0.362885 0.169238 -0.166533 64.598738 -24.275904 -0.000000 0.205503 0.429031 -0.411796
7.655000 181.411239 833.888864 -0.000000 0.353947 0.162880 -0.166476 62.305487 -22.947613 -0.000000 0.214258 0.435457 -0.411733
